<?xml version="1.0" encoding="UTF-8" standalone="no"?>
<svg width="458px" height="60px" viewBox="0 0 458 60" version="1.1" xmlns="http://www.w3.org/2000/svg" xmlns:xlink="http://www.w3.org/1999/xlink">
    <!-- Generator: Sketch 41.2 (35397) - http://www.bohemiancoding.com/sketch -->
    <title>NP_logo_0427</title>
    <desc>Created with Sketch.</desc>
    <defs></defs>
    <g id="Style-Guide" stroke="none" stroke-width="1" fill="none" fill-rule="evenodd">
        <g id="NP-Logo" transform="translate(-8.000000, -8.000000)">
            <g id="NP_logo_0427" transform="translate(8.000000, 8.000000)">
                <g id="Layer_1">
                    <g id="Group">
                        <path d="M299.10161,42.419 L298.418424,58.862 L275.038044,58.862 L264.700224,58.862 L264.700224,58.032 C265.378409,58.032 267.489985,57.354 270.66085,55.768 C272.114247,55.045 272.548365,54.639 272.548365,53.129 L272.548365,6.813 C272.548365,5.304 272.114247,4.899 270.66085,4.174 C267.489985,2.588 265.078327,1.91 264.395141,1.91 L264.395141,1.08 L286.583195,1.08 L286.583195,1.911 C285.97903,1.911 283.785431,2.439 280.316485,4.175 C278.864088,4.9 278.42997,5.305 278.42997,6.814 L278.42997,49.586 C278.42997,56.678 278.805072,57.178 284.243556,57.281 L288.156624,57.299 C291.62557,57.367 292.768882,56.869 293.366045,55.471 C295.850723,49.586 297.9643,44.606 298.189361,42.42 L299.10161,42.42 L299.10161,42.419 Z" id="Shape" fill="#000000"></path>
                        <path d="M223.049859,1.912 C221.315386,1.987 218.824707,2.968 216.63711,5.229 C215.331754,6.578 214.524533,7.833 214.524533,14.661 L214.524533,59.39 L212.86308,59.39 L190.829068,11.49 L190.829068,45.21 C190.829068,52.036 191.281191,53.28 192.791603,54.79 C194.604098,56.601 196.942736,57.808 199.358395,58.032 L199.358395,58.862 L180.567268,58.862 L180.567268,58.032 C182.603824,57.886 184.491339,56.901 186.981018,54.714 C188.387402,53.476 189.093594,52.11 189.093594,45.286 L189.093594,11.793 C189.093594,8.625 188.860531,7.219 187.738225,5.76 C186.228813,3.797 182.906906,1.988 179.51098,1.987 L179.51098,1.081 L192.33848,1.081 L212.788059,45.585 L212.788059,14.735 C212.788059,7.908 212.236909,6.76 210.824524,5.155 C209.166071,3.269 206.371309,2.137 204.258732,1.912 L204.258732,1.081 L223.049859,1.081 L223.049859,1.912 L223.049859,1.912 Z" id="Shape" fill="#000000"></path>
                        <path d="M139.531071,58.863 L117.347018,58.863 L117.347018,58.033 C118.026204,58.033 120.437862,57.129 123.611728,55.545 C125.064124,54.818 125.499243,54.641 125.499243,53.131 L125.499243,6.814 C125.499243,5.304 125.064124,4.9 123.611728,4.173 C120.437862,2.588 118.026204,1.911 117.347018,1.911 L117.347018,1.081 L139.531071,1.081 L139.531071,1.912 C138.926906,1.912 136.74031,2.439 133.270363,4.174 C131.813966,4.901 131.382848,5.305 131.382848,6.815 L131.382848,53.13 C131.382848,54.64 131.813966,55.044 133.270363,55.769 C136.74031,57.503 138.925906,58.033 139.531071,58.033 L139.531071,58.863 Z" id="Shape" fill="#000000"></path>
                        <path d="M112.937815,16.319 L112.11159,16.319 C111.959548,13.754 109.395849,7.194 107.731395,4.099 C107.12723,2.966 105.920901,2.589 103.129139,2.589 L99.3571097,2.589 L99.3571097,53.13 C99.3571097,54.64 99.7882273,55.044 101.244625,55.769 C104.713571,57.503 106.903169,58.033 107.508334,58.033 L107.508334,58.863 L85.32128,58.863 L85.32128,58.033 C86.0024659,58.033 88.4161245,57.357 91.5849891,55.769 C93.0403862,55.044 93.4715038,54.64 93.4715038,53.13 L93.4715038,2.59 L89.7004749,2.59 C86.9057123,2.59 85.702384,2.967 85.0952183,4.1 C83.4347653,7.195 80.9470865,13.754 80.7200246,16.32 L79.8887978,16.32 L79.8887978,1.081 L112.937815,1.081 L112.937815,16.319 L112.937815,16.319 Z" id="Shape" fill="#000000"></path>
                        <path d="M37.3761981,5.229 C36.0728425,6.577 35.2636217,7.833 35.2636217,14.661 L35.2636217,59.39 L33.6031687,59.39 L11.5711572,11.49 L11.5711572,45.21 C11.5711572,52.032 12.02128,53.274 13.5326924,54.79 C15.3441867,56.601 17.6828248,57.808 20.0984839,58.032 L20.0984839,58.862 L1.30635644,58.862 L1.30635644,58.032 C3.34391239,57.884 5.23042713,56.901 7.72010644,54.714 C9.12849072,53.476 9.83268286,52.11 9.83268286,45.282 L9.83268286,11.792 C9.83268286,8.623 9.598619,7.218 8.4753125,5.758 C6.96690093,3.796 3.64599481,1.986 0.249067959,1.985 L0.249067959,1.08 L13.0785685,1.08 L33.5271479,45.585 L33.5271479,14.734 C33.5271479,7.905 32.9759975,6.758 31.5646124,5.153 C29.9031591,3.268 27.1113974,2.137 25.0008215,1.912 L25.0008215,1.081 L43.7889479,1.081 L43.7889479,1.912 C42.0554749,1.986 39.5627948,2.967 37.3761981,5.229 Z" id="Shape" fill="#000000"></path>
                        <path d="M245.750053,38.646 L238.88618,10.36 L232.241367,38.646 L245.750053,38.646 Z M262.126522,58.863 L241.45088,58.863 L241.45088,58.033 C242.204086,58.033 244.466703,57.433 247.93665,55.482 C248.699858,55.052 249.068959,54.416 249.068959,53.81 C249.068959,53.208 248.923919,52.585 248.768877,51.921 L245.977115,40.153 L231.939285,40.153 L230.05377,48.753 C229.725681,50.257 229.601647,51.622 229.601647,52.376 C229.601647,53.657 230.389862,54.882 231.636202,55.847 C233.674758,57.421 235.112151,58.033 236.241459,58.033 L236.241459,58.863 L219.113785,58.863 L219.113785,58.033 C220.470156,58.033 222.86881,56.74 224.996391,54.715 C226.508803,53.281 227.258008,51.375 227.867174,48.908 L239.862447,0.403 L242.050044,0.403 L254.655483,52.149 C255.069596,53.862 255.443698,54.651 256.464977,55.243 C259.711863,57.13 261.521356,58.034 262.126522,58.034 L262.126522,58.863 L262.126522,58.863 Z" id="Shape" fill="#000000"></path>
                        <path d="M170.443506,29.747 C170.443506,16.018 168.856073,1.155 160.78487,1.155 C152.709667,1.155 151.278276,15.565 151.278276,30.046 C151.278276,44.078 152.862709,58.789 160.78487,58.789 C168.632011,58.789 170.443506,44.605 170.443506,29.747 M177.157338,29.519 C177.157338,40.154 174.89272,59.92 160.70885,59.92 C146.975102,59.92 144.562444,40.533 144.562444,30.501 C144.562444,19.336 146.749041,0.026 160.78487,0.026 C174.440596,0.025 177.157338,19.186 177.157338,29.519" id="Shape" fill="#000000"></path>
                        <path d="M65.2067918,38.646 L58.3399181,10.36 L51.7001064,38.646 L65.2067918,38.646 Z M81.8823417,58.863 L60.9076187,58.863 L60.9076187,58.033 C61.6618245,58.033 63.7734007,57.433 67.3953889,55.482 C68.1665993,55.066 68.5266976,54.416 68.5266976,53.81 C68.5266976,53.208 68.3826583,52.585 68.2266157,51.921 L65.4328534,40.153 L51.3970237,40.153 L49.5115093,48.753 C49.1834198,50.257 49.0583856,51.622 49.0583856,52.376 C49.0583856,53.657 49.8496015,54.882 51.0979421,55.847 C53.1354981,57.421 54.5678889,58.033 55.7001979,58.033 L55.7001979,58.863 L38.570524,58.863 L38.570524,58.033 C39.9288947,58.033 42.3265489,56.74 44.4561299,54.715 C45.9675423,53.281 46.7127456,51.375 47.3249127,48.908 L59.3221861,0.402 L61.5087828,0.402 L74.1142222,52.148 C74.5273349,53.861 74.901437,54.65 75.9247162,55.242 C79.1696015,57.129 81.2801774,58.033 81.883342,58.033 L81.883342,58.863 L81.8823417,58.863 Z" id="Shape" fill="#000000"></path>
                        <path d="M420.820822,46.171 C420.820822,55.827 415.007235,59.976 407.691239,59.976 C403.164004,59.976 400.445262,57.109 398.785809,54.923 L395.994047,58.917 L395.090801,58.917 L394.712698,40.288 L395.693966,40.288 C396.146089,42.85 397.525465,47.108 398.546744,49.708 C400.917391,55.747 403.391066,58.845 407.616219,58.845 C412.595577,58.845 415.159277,53.491 415.159277,48.583 C415.159277,41.644 410.635042,36.212 405.212563,30.932 C399.838096,25.701 394.637677,20.265 394.637677,12.453 C394.637677,4.003 400.446262,0.081 406.55993,0.081 C411.313227,0.081 413.424803,2.192 414.861195,3.927 L417.274854,1.137 L418.028059,1.137 L418.028059,17.733 L417.194832,17.733 C416.970771,15.695 415.480364,11.392 414.553111,8.908 C412.520557,3.476 410.708062,1.214 406.70597,1.214 C402.406797,1.214 400.067159,4.834 400.067159,10.416 C400.067159,16.376 404.696422,21.204 409.700787,26.182 C415.311318,31.761 420.820822,38.25 420.820822,46.171" id="Shape" fill="#000000"></path>
                        <path d="M381.778169,29.799 C381.778169,16.072 380.493818,1.213 372.120534,1.213 C363.97231,1.213 362.611939,14.489 362.611939,30.105 C362.611939,45.115 364.199372,58.848 372.120534,58.848 C379.969675,58.847 381.778169,45.49 381.778169,29.799 M388.495001,29.573 C388.495001,40.212 386.230383,59.976 372.049514,59.976 C358.311766,59.976 355.899108,40.587 355.899108,30.558 C355.899108,19.393 358.086704,0.08 372.120534,0.08 C385.77726,0.08 388.495001,19.242 388.495001,29.573" id="Shape" fill="#000000"></path>
                        <path d="M345.808354,17.582 C345.808354,7.171 342.635489,2.644 333.886101,2.644 L330.942298,2.644 L330.942298,31.382 L334.788347,31.382 C342.112346,31.382 345.808354,26.483 345.808354,17.582 M336.22574,32.894 L330.942298,32.894 L330.942298,53.185 C330.942298,54.695 331.374416,55.101 332.828813,55.828 C336.29876,57.558 338.490358,58.092 339.090521,58.092 L339.090521,58.918 L316.908469,58.918 L316.908469,58.092 C317.589655,58.092 319.996311,57.184 323.171178,55.6 C324.625575,54.873 325.058693,54.696 325.058693,53.186 L325.058693,6.87 C325.058693,5.353 324.625575,4.957 323.171178,4.228 C320.002313,2.644 317.589655,1.965 316.908469,1.965 L316.908469,1.137 L335.926658,1.137 C344.976127,1.137 352.070063,6.116 352.070063,16.601 C352.070063,27.388 344.146901,32.894 336.22574,32.894 Z" id="Shape" fill="#000000"></path>
                        <path d="M457.874932,16.374 L457.043705,16.374 C456.892664,13.81 454.325963,7.249 452.66551,4.154 C452.061346,3.023 450.856017,2.645 448.064255,2.645 L444.290225,2.645 L444.290225,53.185 C444.290225,54.695 444.724344,55.101 446.180741,55.828 C449.649687,57.558 451.835284,58.092 452.439449,58.092 L452.439449,58.92 L430.255396,58.92 L430.255396,58.092 C430.933581,58.092 433.347239,57.408 436.522106,55.828 C437.973502,55.101 438.404619,54.695 438.404619,53.185 L438.404619,2.646 L434.63359,2.646 C431.842829,2.646 430.6375,3.024 430.029334,4.155 C428.367881,7.25 425.880202,13.81 425.656141,16.375 L424.823914,16.375 L424.823914,1.137 L457.874932,1.137 L457.874932,16.374 L457.874932,16.374 Z" id="Shape" fill="#000000"></path>
                        <path d="M306.930746,10.455 C307.255835,10.977 307.287844,11.661 307.287844,11.661 C307.41988,13.172 308.561191,13.721 308.561191,13.721 C308.561191,13.721 307.922017,13.773 308.304121,14.363 C308.685225,14.953 308.84927,15.554 308.84927,15.554 C309.191363,16.774 309.934566,16.407 309.934566,16.407 C309.846542,16.878 309.270385,17.446 308.580197,18.283 C307.890008,19.119 308.168084,19.993 308.168084,19.993 C307.722963,20.139 307.667948,20.582 307.667948,20.582 C307.484898,22.669 309.304394,20.262 309.557463,19.852 C309.808532,19.441 310.590745,18.984 310.590745,18.984 C310.418698,19.186 310.102612,20.333 311.005858,19.886 C311.912106,19.44 312.834357,20.031 312.834357,20.031 C312.834357,20.031 314.0907,20.681 314.942933,20.308 C315.795165,19.933 316.100248,20.162 316.100248,20.162 C315.798166,20.244 314.976942,21.331 314.332766,22.667 C313.691591,24.002 314.352772,23.873 314.352772,23.873 C314.352772,23.873 314.437795,24.144 313.443523,24.722 C312.450252,25.299 312.688317,26.464 313.383507,26.818 C314.078697,27.173 314.49381,27.734 314.49381,27.734 C314.071695,27.435 313.067421,27.425 312.447252,27.634 C311.825082,27.841 310.678769,27.696 309.680497,27.793 C308.681224,27.891 308.120071,28.646 308.762246,29.272 C309.403421,29.901 309.714506,30.377 309.782525,30.861 C309.848543,31.347 310.193637,31.452 310.193637,31.452 C311.052871,31.899 311.406968,32.425 311.406968,32.425 C310.385689,31.917 308.831265,32.37 307.661946,32.298 C306.493627,32.228 306.508631,33.835 306.508631,33.835 C306.047505,33.085 305.266292,32.491 304.737148,31.995 C304.208004,31.501 302.879641,31.849 303.751879,32.821 C304.626118,33.796 304.584106,34.456 304.584106,34.456 C304.584106,34.456 304.283024,33.657 302.28848,33.112 C300.295936,32.565 298.831537,29.874 298.831537,29.874 C297.364136,30.733 296.31585,34.227 296.31585,34.227 C295.737692,36.247 293.831172,38.956 293.559098,39.241 C293.286023,39.528 292.572829,40.438 292.333764,41.206 C292.0987,41.974 291.555551,42.173 291.555551,42.173 C290.81635,41.97 291.289479,41.316 291.289479,41.316 C292.42879,40.673 295.322579,36.738 295.956752,34.074 C296.593926,31.41 298.467437,29.441 298.467437,29.441 C298.467437,29.441 297.428154,29.83 296.738966,29.212 C296.050778,28.596 295.762699,28.693 295.762699,28.693 C295.762699,28.693 294.489352,28.598 293.443066,27.998 C292.397781,27.395 291.362499,27.752 291.362499,27.752 C291.362499,27.752 292.065691,26.965 292.655852,26.923 C293.247013,26.882 293.617114,25.832 293.27402,25.694 C292.929926,25.556 292.390779,25.184 292.093698,24.866 C291.797617,24.547 290.827353,24.137 290.827353,24.137 C291.254469,23.866 291.341493,22.512 290.227189,21.457 C289.112885,20.401 288.854814,19.281 288.854814,19.281 C288.854814,19.281 289.850086,19.924 290.2662,19.945 C290.681313,19.966 291.094425,20.186 291.094425,20.186 C291.529544,19.994 291.963663,20.17 291.963663,20.17 C292.559825,20.408 293.304028,20.039 293.304028,20.039 C293.546094,19.922 293.781159,19.354 293.341038,18.728 C292.900918,18.103 292.90592,17.162 292.90592,17.162 C292.884914,16.154 291.871638,15.015 291.871638,15.015 C292.665854,15.657 293.307029,15.403 293.307029,15.403 C294.605383,15.053 293.958207,13.605 293.958207,13.605 C294.73842,13.519 295.486624,12.209 295.638665,11.372 C295.788706,10.536 296.034773,10.016 296.034773,10.016 C296.05978,10.25 296.157807,10.368 296.157807,10.368 C296.724962,11.143 296.763972,11.394 296.763972,11.394 C296.763972,11.394 296.953024,12.06 297.409148,12.332 C297.865273,12.604 298.291389,13.213 298.291389,13.213 C298.862545,14.099 299.32167,12.916 299.32167,12.916 C299.507721,14.865 300.075876,15.779 300.075876,15.779 C299.752788,16.106 299.771793,16.433 299.771793,16.433 C299.743785,17.992 300.981123,16.214 301.412241,15.711 C301.843358,15.207 301.581287,14.829 301.581287,14.829 C302.28848,14.35 302.101429,12.432 302.101429,12.432 L302.794618,13.158 C303.162718,13.531 303.720871,13.177 303.839903,12.709 C303.957935,12.24 304.241013,11.832 304.241013,11.832 C304.550097,12.539 305.970484,12.028 305.970484,12.028 C306.610659,11.776 306.883734,10.779 306.883734,10.779 L306.930746,10.455 Z" id="Shape" fill="#000000"></path>
                        <path d="M296.771975,11.965 C296.79098,12.122 296.802983,12.279 296.813986,12.435 C296.804984,12.279 296.796981,12.123 296.79298,11.968 C296.79198,11.964 296.773975,11.964 296.771975,11.965" id="Shape" fill="#FFFFFF"></path>
                        <path d="M296.82999,12.649 C296.824989,12.577 296.819988,12.504 296.814986,12.434 C296.819988,12.505 296.824989,12.576 296.82999,12.649" id="Shape" fill="#FFFFFF"></path>
                        <path d="M298.685497,17.509 C298.794526,17.993 298.992581,18.455 299.103611,18.942 C299.315669,19.871 299.145622,20.705 299.076603,21.636 C299.004584,22.617 299.267656,23.575 299.512722,24.517 C299.514723,24.52 299.489716,24.523 299.487716,24.517 C299.202638,23.612 298.810531,22.597 298.867546,21.632 C298.928563,20.593 299.087606,19.673 298.80753,18.643 C298.690498,18.213 298.564464,17.796 298.51345,17.353 C298.462436,16.916 298.434428,16.441 298.231373,16.041 C297.848268,15.285 297.45216,14.641 297.321124,13.787 C297.321124,13.787 297.324125,13.787 297.325126,13.788 C297.418151,14.274 297.575194,14.738 297.815259,15.175 C298.024316,15.554 298.278386,15.909 298.429427,16.318 C298.569465,16.697 298.597473,17.115 298.685497,17.509" id="Shape" fill="#FFFFFF"></path>
                        <path d="M293.381049,24.479 C292.817896,23.69 292.453796,22.767 291.751605,22.078 C291.14844,21.487 290.470255,20.998 290.092152,20.223 C290.091152,20.222 290.096153,20.22 290.098154,20.221 C290.554278,21.102 291.40551,21.606 292.075693,22.303 C292.707866,22.959 293.167991,23.752 293.768155,24.436 C294.919469,25.747 296.527908,26.79 297.34213,28.367 C297.37814,28.439 297.205093,28.504 297.160081,28.453 C296.53391,27.765 295.893735,27.092 295.221552,26.447 C294.576376,25.826 293.904192,25.208 293.381049,24.479" id="Shape" fill="#FFFFFF"></path>
                        <path d="M297.01304,28.946 C297.025044,28.955 296.958025,28.97 296.941021,28.959 C296.731964,28.799 296.539911,28.629 296.354861,28.45 C296.333855,28.462 296.307848,28.47 296.281841,28.468 C295.680677,28.423 295.233555,28.103 294.713413,27.835 C294.082241,27.512 292.981941,27.104 292.308757,27.484 C292.304756,27.486 292.295753,27.483 292.295753,27.482 C292.772883,27.17 293.461071,27.357 293.978212,27.452 C294.761426,27.595 295.477621,27.948 296.192817,28.286 C295.447613,27.514 294.84945,26.603 294.131254,25.8 C293.286023,24.857 292.201728,24.045 291.832627,22.781 C291.832627,22.78 291.84263,22.779 291.84263,22.78 C292.314758,24.043 293.411058,24.78 294.255288,25.776 C295.168537,26.853 295.932746,28.02 297.01304,28.946" id="Shape" fill="#FFFFFF"></path>
                        <path d="M295.261562,27.661 C294.671401,27.299 294.061235,27.018 293.374047,26.895 C293.373047,26.894 293.380049,26.89 293.38205,26.89 C294.108248,26.919 294.762426,27.174 295.342585,27.609 C295.368592,27.627 295.285569,27.675 295.261562,27.661" id="Shape" fill="#FFFFFF"></path>
                        <path d="M304.375049,23.435 C304.878186,23.231 305.428337,23.089 305.91747,22.843 C306.585652,22.505 307.1278,21.996 307.729965,21.554 C307.732965,21.553 307.745969,21.549 307.742968,21.551 C306.930746,22.222 306.263564,22.886 305.283297,23.272 C304.053962,23.754 302.703593,24.035 301.539275,24.761 C301.512268,24.779 301.417242,24.802 301.480259,24.757 C302.386507,24.128 303.402784,23.83 304.375049,23.435" id="Shape" fill="#FFFFFF"></path>
                        <path d="M301.844359,23.815 C301.771339,23.894 301.952388,23.929 302.004402,23.896 C302.824626,23.365 303.887916,23.2 304.808167,22.901 C305.597383,22.648 306.403603,22.241 306.967757,21.627 C306.968757,21.626 306.954753,21.624 306.951752,21.626 C306.189544,22.179 305.167265,22.476 304.263019,22.704 C303.371775,22.93 302.498537,23.123 301.844359,23.815" id="Shape" fill="#FFFFFF"></path>
                        <path d="M308.620207,21.558 C309.458436,21.141 310.574741,20.908 311.236921,20.199 C311.236921,20.199 311.234921,20.2 311.233921,20.2 C310.339677,20.68 309.345405,20.898 308.510177,21.497 C308.433156,21.553 308.577196,21.577 308.620207,21.558" id="Shape" fill="#FFFFFF"></path>
                        <path d="M310.7908,24.667 C311.362956,24.516 311.92711,24.578 312.508268,24.623 C312.554281,24.625 312.647306,24.57 312.561283,24.556 C312.100157,24.471 311.644032,24.4 311.185907,24.441 C312.021135,23.951 312.84536,23.417 313.602567,22.82 C313.602567,22.82 313.596565,22.819 313.595565,22.819 C312.622299,23.381 311.736058,24.099 310.696774,24.538 C309.43543,25.068 310.699775,24.691 310.7908,24.667" id="Shape" fill="#FFFFFF"></path>
                        <path d="M307.560918,17.089 C307.763974,16.724 308.067056,16.038 308.55519,15.983 C308.559191,15.983 308.567193,15.985 308.558191,15.986 C307.997037,16.074 307.612933,17.189 307.412878,17.619 C307.159809,18.167 306.938749,18.755 306.608659,19.264 C306.595655,19.283 306.514633,19.28 306.526636,19.258 C306.918743,18.562 307.171812,17.791 307.560918,17.089" id="Shape" fill="#FFFFFF"></path>
                        <path d="M305.557372,21.301 C305.503357,21.332 305.559372,21.338 305.592381,21.322 C305.982488,21.135 306.312578,20.888 306.623663,20.59 C306.921744,20.303 307.322853,19.589 307.727964,19.465 C307.732965,19.464 307.745969,19.456 307.733966,19.459 C307.540913,19.501 307.408877,19.606 307.277841,19.76 C306.774704,20.348 306.235557,20.913 305.557372,21.301" id="Shape" fill="#FFFFFF"></path>
                        <path d="M297.559189,13.389 C297.56219,13.366 297.568192,13.392 297.567192,13.4 C297.486169,14.201 298.479441,15.116 298.775521,15.744 C299.085606,16.398 299.281659,17.083 299.328672,17.866 C299.332673,17.932 299.276658,18.038 299.261654,17.928 C299.072602,16.551 298.451433,15.406 297.763245,14.323 C297.583196,14.039 297.48917,13.769 297.559189,13.389" id="Shape" fill="#FFFFFF"></path>
                        <path d="M312.866366,26.809 C312.884371,26.802 312.887372,26.81 312.869367,26.817 C311.530001,27.368 310.041595,27.222 308.636212,27.137 C307.790981,27.086 306.949752,26.967 306.104521,26.942 C305.269293,26.918 304.462073,27.031 303.638848,27.154 C303.531819,27.171 303.459799,27.05 303.573831,26.992 C304.840176,26.323 306.370594,26.545 307.735966,26.689 C308.44616,26.764 309.156354,26.836 309.865547,26.915 C310.868821,27.025 311.897102,27.174 312.866366,26.809" id="Shape" fill="#FFFFFF"></path>
                        <path d="M310.503721,27.393 C310.506722,27.394 310.512724,27.391 310.512724,27.39 C310.200639,27.282 309.889554,27.295 309.574468,27.344 C309.896556,27.301 310.211642,27.301 310.503721,27.393" id="Shape" fill="#FFFFFF"></path>
                        <path d="M309.130347,27.428 C309.277387,27.397 309.426427,27.366 309.574468,27.344 C309.36141,27.37 309.145351,27.415 308.932293,27.467 C309.000311,27.452 309.064329,27.44 309.130347,27.428" id="Shape" fill="#FFFFFF"></path>
                        <path d="M308.933293,27.466 C308.624209,27.537 308.320126,27.618 308.036048,27.663 C307.350861,27.768 306.681678,27.787 305.99049,27.742 C305.099247,27.683 304.335038,27.759 303.480805,28.033 C302.798619,28.252 302.129436,28.514 301.417242,28.617 C301.318215,28.631 301.288207,28.539 301.376231,28.493 C302.234465,28.032 303.161718,27.717 304.115978,27.526 C304.845177,27.38 305.520362,27.521 306.244559,27.618 C307.156808,27.741 308.041049,27.64 308.933293,27.466" id="Shape" fill="#FFFFFF"></path>
                        <path d="M297.187088,21.786 C297.125071,20.825 297.213095,19.859 297.042048,18.905 C296.922016,18.224 296.689952,17.571 296.479895,16.914 C296.380868,16.355 296.248832,15.803 296.113795,15.264 C295.83972,14.161 296.004765,13.007 295.861726,11.887 C295.861726,11.886 295.859726,11.887 295.859726,11.887 C295.965755,12.961 295.826717,14.041 295.853724,15.117 C295.87473,15.898 296.399873,17.986 296.775976,19.517 C296.801983,19.915 296.801983,20.316 296.799982,20.716 C296.566919,20.071 296.340857,19.446 296.338856,19.439 C296.014768,18.387 295.606657,17.336 295.606657,16.221 C295.605656,15.047 295.572647,13.919 295.409603,12.753 C295.409603,12.752 295.407602,12.752 295.407602,12.752 C295.456616,13.337 295.517632,13.921 295.543639,14.508 C295.567646,15.125 295.495626,15.738 295.489625,16.356 C295.479622,17.198 296.139802,19.151 296.800983,20.853 C296.798982,21.08 296.798982,21.305 296.802983,21.531 C296.686951,21.276 296.604929,21.098 296.600928,21.092 C296.079786,20.043 295.504629,18.694 295.284569,17.529 C295.035501,16.209 295.161535,14.793 295.111522,13.453 C295.111522,13.453 295.100519,13.457 295.100519,13.459 C295.091516,14.137 295.059507,14.812 295.021497,15.487 C294.982486,16.187 294.902465,16.905 295.038502,17.598 C295.192544,18.382 296.079786,20.333 296.810985,21.798 C296.813986,21.879 296.816987,21.959 296.820988,22.039 C296.82899,22.149 296.841994,22.257 296.855998,22.362 C296.802983,22.245 296.748968,22.127 296.690953,22.012 C296.231827,21.118 295.567646,20.378 295.164536,19.442 C294.804438,18.608 294.531363,17.708 294.499355,16.795 C294.469346,15.92 294.662399,15.064 294.589379,14.182 C294.589379,14.179 294.568373,14.18 294.568373,14.184 C294.676403,15.031 294.3013,15.818 294.192271,16.645 C294.08024,17.504 294.383323,18.415 294.670401,19.21 C295.013495,20.164 295.547641,20.955 296.101792,21.795 C296.38987,22.23 296.60993,22.69 296.805984,23.164 C296.669947,23.03 296.522907,22.899 296.367864,22.771 C295.349587,21.281 294.663399,19.919 294.279294,19.089 C293.821169,18.099 293.772156,16.927 293.179995,16.002 C293.178994,16 293.170992,16.002 293.170992,16.003 C293.655124,17.016 293.64012,18.137 293.997218,19.187 C294.293298,20.049 295.10652,21.343 295.732691,22.28 C295.587651,22.174 295.445613,22.071 295.315577,21.979 C294.717414,21.55 294.091243,21.176 293.692134,20.538 C293.691134,20.537 293.685132,20.541 293.685132,20.541 C294.253287,21.624 295.481623,22.281 296.297845,23.167 C297.190089,24.136 297.592198,25.261 297.787252,26.522 C297.281114,25.465 296.739966,24.406 296.054779,23.463 C295.681677,22.949 295.269565,22.509 294.743421,22.152 C294.082241,21.703 293.326034,21.378 292.930927,20.642 C292.930927,20.641 292.925925,20.644 292.926925,20.644 C293.154988,21.198 293.558098,21.611 294.018223,21.981 C294.633391,22.475 295.189543,22.925 295.706684,23.522 C296.613931,24.569 297.219097,25.818 297.895281,27.015 C297.92629,27.23 297.956298,27.446 297.991307,27.661 C297.992308,27.673 297.994308,27.685 297.996309,27.697 C297.345131,26.261 296.016769,24.368 295.224552,23.55 C294.238283,22.536 293.074966,21.72 292.115704,20.683 C292.114704,20.681 292.103701,20.682 292.104701,20.682 C292.994944,21.81 294.055233,22.844 295.046504,23.883 C295.483623,24.341 295.978758,24.738 296.414877,25.197 C296.763972,25.563 297.335128,26.632 297.757243,27.515 C297.077058,26.524 296.05978,25.708 295.28857,24.85 C293.907193,23.311 292.309757,21.991 290.940383,20.446 C290.938383,20.445 290.932381,20.448 290.932381,20.448 C292.196726,21.906 293.717141,23.118 294.933473,24.621 C296.035774,25.983 297.273111,27.174 298.07333,28.735 C298.141348,29.063 298.278386,29.295 298.522452,29.279 C298.520452,29.333 298.522452,29.386 298.526453,29.442 C298.541457,29.599 298.73551,29.651 298.848541,29.564 C298.939566,29.495 299.033592,29.429 299.125617,29.363 C299.139621,29.373 299.157626,29.378 299.187634,29.373 C300.012859,29.22 300.851088,29.125 301.678313,28.984 C302.448523,28.852 303.193727,28.59 303.972939,28.525 C304.685134,28.466 305.395328,28.559 306.107522,28.472 C306.887735,28.376 307.60493,28.091 308.403148,28.085 C308.407149,28.085 308.419153,28.075 308.418152,28.073 C307.656945,28.019 306.898738,28.203 306.139531,28.227 C305.365319,28.251 304.59711,28.117 303.821898,28.161 C303.067692,28.204 302.329491,28.473 301.588289,28.602 C300.900101,28.721 300.248923,28.818 299.609749,29.05 C300.205912,28.687 300.836084,28.391 301.478259,28.099 C302.426517,27.669 303.27775,27.136 304.162991,26.594 C304.197001,26.573 304.23301,26.554 304.26702,26.533 C304.281023,26.546 304.329037,26.553 304.346041,26.549 C305.470348,26.214 306.591654,26.364 307.741968,26.387 C308.81426,26.407 309.903558,26.388 310.971849,26.264 C310.97685,26.264 310.965847,26.262 310.963847,26.262 C309.65649,26.402 308.304121,26.395 306.992763,26.308 C306.095519,26.247 305.18327,26.177 304.327036,26.5 C304.78116,26.237 305.25729,26.031 305.73442,25.833 C305.767429,25.868 305.811441,25.893 305.867456,25.896 C307.957026,26.014 310.072604,26.334 312.143169,25.844 C312.175177,25.837 312.270203,25.747 312.193182,25.757 C310.330674,25.949 308.467166,25.693 306.607658,25.552 C307.161809,25.297 307.732965,25.079 308.29812,24.845 C309.102339,24.512 309.835539,24.059 310.589745,23.628 C311.277933,23.235 311.949116,22.825 312.603294,22.374 C313.415516,21.814 314.207732,21.234 315.135985,20.878 C315.137986,20.877 315.144988,20.872 315.137986,20.874 C313.583562,21.421 312.29621,22.556 310.824809,23.282 C310.288663,23.545 309.747515,23.804 309.201366,24.052 C309.314397,23.984 309.430428,23.917 309.541459,23.849 C309.542459,23.848 309.536457,23.848 309.534457,23.849 C309.305394,23.977 309.076332,24.097 308.846269,24.212 C308.659218,24.292 308.476168,24.373 308.290117,24.449 C307.672949,24.704 307.046778,24.928 306.438612,25.203 C305.6594,25.475 304.917197,25.736 304.200001,26.125 C304.339039,26.024 304.476077,25.923 304.613114,25.82 C304.74415,25.764 304.875186,25.711 305.005221,25.651 C305.644395,25.37 306.268566,25.051 306.888735,24.73 C308.064056,24.121 309.211369,23.476 310.407695,22.903 C311.543005,22.359 312.681316,21.803 313.730602,21.104 C313.735603,21.1 313.721599,21.104 313.720599,21.105 C312.543278,21.861 311.26693,22.394 309.978578,22.92 C308.753244,23.42 307.573922,23.993 306.389599,24.579 C305.283297,25.127 304.104975,25.546 303.032683,26.158 C302.709595,26.342 302.39751,26.545 302.092426,26.759 C302.083424,26.759 302.077422,26.762 302.074421,26.763 C301.999401,26.809 301.925381,26.856 301.84936,26.902 C301.904375,26.858 301.955389,26.811 302.010404,26.766 C302.39751,26.485 302.780614,26.201 303.171721,25.933 C304.275022,25.179 305.397328,24.546 306.631665,24.032 C307.856999,23.52 309.14135,23.096 310.311669,22.466 C311.311942,21.927 312.230192,21.254 313.241468,20.734 C313.241468,20.734 313.238468,20.733 313.236467,20.733 C312.063147,21.243 311.003858,21.973 309.845542,22.514 C308.706231,23.044 307.490899,23.424 306.334584,23.918 C305.329309,24.347 304.336038,24.849 303.375776,25.414 C303.310759,25.446 303.24374,25.479 303.179723,25.513 C303.246741,25.471 303.31676,25.429 303.385779,25.387 C304.161991,24.922 304.952207,24.48 305.77043,24.09 C305.791436,24.08 305.785434,24.069 305.765428,24.08 C305.2933,24.295 304.813169,24.482 304.335038,24.681 C304.946205,24.338 305.560373,24.001 306.171539,23.669 C307.228828,23.098 308.361137,22.702 309.454435,22.213 C310.53673,21.729 311.564011,21.132 312.640304,20.635 C312.643305,20.633 312.629301,20.631 312.628301,20.633 C311.529001,21.117 310.473713,21.691 309.376414,22.176 C308.218098,22.689 307.007767,23.075 305.851452,23.594 C303.818897,24.505 301.917379,25.566 300.203911,26.975 C300.286934,26.765 300.372957,26.557 300.468983,26.353 C300.511995,26.383 300.588016,26.392 300.634028,26.366 C302.331492,25.347 304.117979,24.512 305.753425,23.386 C306.700684,22.734 307.753971,22.35 308.803257,21.9 C309.741513,21.498 310.634757,21.001 311.571013,20.59 C311.589017,20.582 311.546006,20.58 311.538004,20.584 C310.53673,21.008 309.569466,21.509 308.563192,21.924 C307.660946,22.298 306.750697,22.614 305.909468,23.124 C304.169993,24.175 302.072421,24.771 300.559008,26.164 C300.667037,25.932 300.783069,25.701 300.905102,25.467 C301.259199,24.789 301.616296,24.112 301.979395,23.438 C302.049415,23.379 302.123435,23.321 302.201456,23.266 C302.385506,23.136 302.577559,23.02 302.773612,22.909 C303.532819,22.528 304.434065,22.401 305.230282,22.131 C305.959481,21.883 306.376595,21.358 306.915742,20.841 C306.916743,20.84 306.90774,20.842 306.90674,20.844 C306.497628,21.177 306.150534,21.576 305.666401,21.811 C305.314305,21.983 304.89119,22.055 304.518088,22.189 C304.153989,22.32 303.776886,22.427 303.411786,22.561 C303.651852,22.434 303.890917,22.304 304.118979,22.161 C304.771157,21.756 305.47635,21.28 305.999492,20.678 C306.397601,20.293 306.762701,19.872 307.076786,19.408 C307.495901,18.793 307.842995,18.156 308.359136,17.612 C308.679224,17.276 309.102339,17.102 309.306395,16.664 C309.306395,16.663 309.28839,16.666 309.285389,16.669 C308.968302,17.066 308.399147,17.233 308.023044,17.586 C307.635939,17.948 307.332856,18.395 307.038776,18.831 C306.717688,19.308 306.422608,19.803 306.082515,20.265 C305.835448,20.602 305.545368,20.9 305.234284,21.178 C304.993218,21.34 304.738148,21.487 304.478077,21.624 C305.310304,20.804 305.88246,19.773 306.500629,18.777 C307.259836,17.557 307.733966,16.19 308.230101,14.847 C308.230101,14.846 308.215097,14.843 308.212096,14.847 C307.914015,15.461 307.525909,16.024 307.23683,16.643 C306.922744,17.316 306.590654,17.955 306.188544,18.582 C305.47735,19.694 304.898192,21.18 303.407785,22.165 C303.090699,22.321 303.35277,22.182 303.056689,22.331 C302.836629,22.443 302.606567,22.564 302.379505,22.698 C302.401511,22.656 302.427518,22.614 302.449524,22.572 C302.907649,22.225 303.390781,21.915 303.820898,21.53 C304.509086,20.917 305.093245,20.139 305.605385,19.353 C305.912469,18.912 306.195546,18.452 306.444614,17.97 C306.812714,17.26 307.036775,16.503 307.143805,15.714 C307.253835,14.911 307.284843,14.057 307.683952,13.333 C307.687953,13.325 307.637939,13.334 307.630937,13.346 C307.224827,13.972 307.051779,14.663 306.912742,15.388 C306.7597,16.192 306.53964,16.931 306.17454,17.669 C305.636393,18.745 305.055235,19.773 304.331037,20.712 C304.092972,20.937 303.840903,21.15 303.575831,21.352 C303.886916,20.912 304.168993,20.45 304.444068,19.994 C304.973212,19.12 305.505358,18.222 305.968484,17.31 C306.327582,16.601 306.492627,15.805 306.626663,15.026 C306.772703,14.162 306.647669,13.181 307.179814,12.426 C307.180815,12.425 307.171812,12.423 307.170812,12.425 C306.743695,12.965 306.65067,13.67 306.574649,14.335 C306.477623,15.19 306.315579,16.043 306.013496,16.85 C305.685407,17.726 305.11025,18.528 304.629118,19.325 C304.135984,20.142 303.396782,21.209 302.859636,21.996 C302.787616,22.045 302.921653,21.81 302.846632,21.859 C302.901647,21.761 302.958663,21.664 303.015678,21.566 C303.208731,21.33 303.395782,21.087 303.560827,20.823 C303.941931,20.214 304.243013,19.556 304.603111,18.935 C305.249288,17.816 305.738421,16.524 306.003493,15.261 C306.258563,14.052 306.359591,12.703 307.069784,11.654 C307.070785,11.653 307.05378,11.651 307.050779,11.654 C306.382597,12.709 306.113523,13.894 305.780433,15.084 C305.406331,16.417 304.849178,17.731 304.153989,18.93 C304.103975,19.016 304.058963,19.104 304.01195,19.191 C303.13271,20.234 302.376504,21.343 301.709322,22.535 C301.956389,21.806 302.221462,21.085 302.670584,20.458 C303.27975,19.604 303.850906,18.797 304.256017,17.821 C305.03823,15.935 305.301302,13.883 306.463619,12.162 C306.463619,12.161 306.447615,12.16 306.445614,12.164 C305.251288,13.834 304.720143,15.844 303.904921,17.701 C303.468802,18.695 302.776613,19.52 302.314487,20.496 C301.963391,21.241 301.729327,22.063 301.494263,22.87 C301.398237,22.965 301.309213,23.064 301.22719,23.17 C301.274203,23.026 301.311213,22.908 301.334219,22.828 C301.400237,22.578 301.417242,22.326 301.406239,22.074 C301.423244,22.131 301.434247,22.162 301.439248,22.148 C301.585288,21.786 301.717324,21.307 301.845359,20.785 C302.498537,19.477 303.302757,18.218 303.815897,16.854 C304.102975,16.091 304.287025,15.303 304.652125,14.57 C305.006221,13.862 305.471348,13.215 305.779432,12.483 C305.779432,12.482 305.77143,12.483 305.76943,12.485 C305.413332,13.156 304.987216,13.782 304.59811,14.434 C304.173994,15.143 303.945932,15.924 303.667856,16.696 C303.219734,17.944 302.515542,19.082 301.964391,20.286 C302.233465,19.114 302.490535,17.819 302.818624,17.045 C303.083697,16.42 303.347769,15.797 303.639849,15.186 C304.067965,14.294 304.498083,13.311 305.311305,12.712 C305.321307,12.705 305.306303,12.71 305.302302,12.712 C304.23201,13.442 303.605839,14.876 303.05969,16.005 C302.681587,16.788 302.407512,17.611 302.109431,18.427 C302.051415,18.585 301.990398,18.752 301.929382,18.923 C302.066419,18.025 302.124435,17.111 302.403511,16.239 C302.796618,15.017 303.584834,13.972 304.253016,12.895 L304.249015,12.895 C303.509813,13.969 302.669584,15.011 302.21546,16.246 C301.836356,17.274 301.874367,18.416 301.725326,19.505 C301.547278,20.026 301.385233,20.563 301.287207,21.052 C301.276204,20.975 301.266201,20.897 301.259199,20.821 C301.112159,19.381 301.111159,17.822 301.451251,16.406 C301.451251,16.405 301.432246,16.402 301.431246,16.406 C301.158171,17.884 300.973121,19.307 301.135165,20.813 C301.208185,21.497 301.389234,22.134 301.229191,22.82 C301.179177,23.036 301.072148,23.322 300.941112,23.635 C300.921107,23.679 300.8971,23.722 300.879095,23.768 C300.876094,23.776 300.878095,23.782 300.876094,23.789 C300.700046,24.198 300.497991,24.641 300.333947,25.025 C300.60502,23.938 300.881096,22.801 300.78607,21.703 C300.720052,20.938 300.590016,20.199 300.595018,19.428 C300.599019,18.713 300.724053,18.01 300.917106,17.324 C300.918106,17.323 300.907103,17.327 300.905102,17.33 C300.524999,18.627 300.497991,19.919 300.638029,21.254 C300.721052,22.039 300.679041,22.742 300.516996,23.517 C300.365955,24.234 300.097882,25.124 300.041867,25.867 C300.036865,25.89 300.028863,25.918 300.021861,25.944 C300.000856,25.997 299.977849,26.048 299.957844,26.099 C299.770793,26.578 299.631755,27.069 299.472712,27.553 C299.647759,26.713 299.675767,25.594 299.842812,24.763 C299.98085,24.078 300.073876,23.419 300.111886,22.718 C300.158899,21.876 300.279932,21.045 300.363955,20.206 C300.403966,19.8 300.415969,19.396 300.38296,18.99 C300.34495,18.499 300.216915,18.05 300.23692,17.55 C300.23692,17.549 300.226917,17.549 300.226917,17.552 C300.073876,19.107 299.867819,20.687 299.898828,22.249 C299.917833,23.179 299.873821,24.031 299.702774,24.95 C299.568738,25.673 299.529727,26.365 299.438702,27.086 C299.412695,26.181 299.351678,25.278 299.191635,24.384 C299.076603,23.735 298.84554,23.115 298.749514,22.464 C298.749514,22.461 298.749514,22.459 298.748514,22.456 C298.739511,22.268 298.726508,22.081 298.6975,21.894 L298.695499,21.894 C298.702501,21.976 298.703502,22.057 298.706502,22.139 C298.634483,21.589 298.583469,21.032 298.546459,20.482 C298.458435,19.165 298.173357,17.792 297.779249,16.531 C297.534183,15.747 297.205093,14.987 297.031045,14.18 C296.925016,13.683 296.856998,13.165 296.817987,12.649 C296.846995,13.1 296.873002,13.553 296.943021,14.004 C297.053051,14.697 297.321124,15.36 297.550187,16.021 C298.022316,17.386 298.438429,18.999 298.344404,20.456 C298.307394,21.031 298.302392,21.62 298.431427,22.185 C298.502447,22.497 298.603474,22.799 298.708503,23.101 C298.707503,23.218 298.705502,23.334 298.704502,23.451 C298.6985,23.991 298.787525,24.516 298.859544,25.05 C298.902556,25.362 298.928563,25.675 298.939566,25.988 C298.817533,25.602 298.665491,25.229 298.492444,24.863 C298.410422,24.274 298.314395,23.687 298.232373,23.099 C298.117342,22.26 298.090334,21.417 298.017314,20.575 C297.878276,18.975 297.548186,17.41 297.125071,15.865 C296.723962,14.395 296.501901,12.902 296.406875,11.382 C296.406875,11.382 296.394872,11.384 296.394872,11.387 C296.467892,12.795 296.64494,14.182 296.982032,15.552 C297.368137,17.112 297.740239,18.643 297.901283,20.246 C297.980304,21.026 297.992308,21.812 298.057325,22.595 C298.11034,23.209 298.192362,23.82 298.274385,24.43 C298.238375,24.361 298.205366,24.293 298.167355,24.226 C298.135347,24.165 298.096336,24.102 298.058326,24.04 C298.012313,23.731 297.9663,23.424 297.923289,23.115 C297.807257,22.276 297.78125,21.434 297.70723,20.592 C297.567192,18.99 297.2311,17.43 296.814986,15.881 C296.38987,14.303 296.292844,12.655 296.193817,11.032 C296.193817,11.031 296.181814,11.033 296.181814,11.036 C296.257834,12.554 296.343858,14.071 296.673948,15.558 C297.023043,17.131 297.427153,18.653 297.590198,20.262 C297.668219,21.044 297.679222,21.829 297.74524,22.612 C297.776249,22.987 297.820261,23.361 297.869274,23.735 C297.784251,23.603 297.698227,23.468 297.609203,23.332 C297.581195,23.267 297.441157,22.959 297.271111,22.591 C297.245104,22.444 297.219097,22.296 297.204093,22.144 C297.191089,22.042 297.183087,21.941 297.178085,21.84 L297.187088,21.786 Z M303.290753,20.726 C303.043686,21.258 302.710595,21.701 302.382505,22.173 C302.342495,22.199 302.302484,22.225 302.263473,22.253 C302.7286,21.357 303.226736,20.476 303.789889,19.647 C303.618843,20.004 303.457799,20.365 303.290753,20.726 L303.290753,20.726 Z M299.470711,27.598 C299.46771,27.605 299.46571,27.611 299.462709,27.618 C299.462709,27.597 299.462709,27.576 299.460708,27.555 C299.46571,27.572 299.46771,27.588 299.470711,27.598 L299.470711,27.598 Z M299.162627,25.34 C299.076603,24.76 298.88255,24.205 298.816532,23.624 C298.803529,23.52 298.799528,23.414 298.793526,23.31 C298.898555,23.609 299.002583,23.907 299.082605,24.214 C299.379686,25.351 299.404693,26.538 299.4307,27.713 C299.399692,27.804 299.368683,27.898 299.334674,27.987 C299.324671,27.941 299.314668,27.897 299.304666,27.852 L299.303665,27.851 C299.328672,27.624 299.311668,27.387 299.270656,27.149 C299.32167,26.532 299.240648,25.867 299.162627,25.34 L299.162627,25.34 Z M298.076331,26.775 C298.081332,26.831 298.089334,26.884 298.095336,26.94 C298.093335,26.941 298.093335,26.944 298.093335,26.946 C298.089334,26.933 298.083332,26.92 298.079331,26.905 C298.079331,26.862 298.077331,26.819 298.076331,26.775 L298.076331,26.775 Z M298.714505,28.147 C298.705502,28.055 298.695499,27.963 298.683496,27.872 C298.66249,27.709 298.640484,27.543 298.609476,27.38 C298.604475,27.366 298.600474,27.356 298.595472,27.344 C298.631482,27.562 298.65949,27.78 298.684496,27.999 C298.689498,28.018 298.693499,28.038 298.6985,28.058 C298.705502,28.084 298.709503,28.115 298.714505,28.147 L298.714505,28.147 Z M298.722507,28.695 L298.722507,28.695 C298.730509,28.685 298.740512,28.676 298.746513,28.667 C298.717505,28.661 298.725508,28.641 298.728508,28.571 C298.730509,28.542 298.730509,28.51 298.730509,28.479 C298.726508,28.481 298.721507,28.48 298.716505,28.481 C298.720506,28.553 298.722507,28.625 298.722507,28.695 L298.722507,28.695 Z" id="Shape" fill="#FFFFFF"></path>
                        <path d="M307.114797,31.068 C306.968757,31.048 306.824718,31.03 306.678678,31.01 C306.697683,31.016 306.714688,31.02 306.732692,31.026 C307.549915,31.265 308.320126,31.603 309.064329,32.011 C309.151352,32.06 309.013315,32.152 308.956299,32.14 C308.135075,31.984 307.396874,31.613 306.598656,31.386 C306.155535,31.261 305.701411,31.209 305.252288,31.106 C304.787162,30.998 304.350042,30.834 303.899919,30.672 C302.997673,30.347 302.088425,30.246 301.139166,30.174 C300.448978,30.122 299.737784,30.067 299.090607,29.8 C299.089607,29.8 299.096609,29.794 299.09961,29.795 C299.889825,30.042 300.697046,30.091 301.51827,30.129 C302.379505,30.17 303.200729,30.276 304.040958,30.47 C304.27002,30.525 304.503084,30.571 304.737148,30.613 C304.729146,30.611 304.723144,30.609 304.716142,30.607 C303.823899,30.286 302.964664,29.923 302.028409,29.741 C301.019133,29.546 300.004857,29.47 298.984578,29.612 C298.978577,29.613 298.959572,29.607 298.964573,29.604 C299.866819,29.422 300.806075,29.345 301.724326,29.427 C302.661582,29.511 303.509813,29.778 304.390053,30.089 C304.89119,30.267 305.394327,30.444 305.923472,30.518 C306.336584,30.577 306.753698,30.611 307.159809,30.701 C307.582924,30.796 307.912014,31.013 308.292118,31.203 C308.835266,31.474 309.415424,31.675 309.994582,31.851 C310.0586,31.871 310.004585,31.894 309.964574,31.884 C309.002312,31.644 308.102066,31.2 307.114797,31.068" id="Shape" fill="#FFFFFF"></path>
                        <path d="M301.527272,29.152 C301.506266,29.117 301.526272,29.064 301.59129,29.057 C302.277477,28.984 302.979668,28.909 303.68086,28.892 C303.699865,28.888 303.71687,28.887 303.724872,28.889 C303.740876,28.889 303.75688,28.889 303.772885,28.89 C303.970939,28.887 304.168993,28.89 304.366047,28.898 C305.125254,28.87 305.938476,28.836 306.489626,28.843 C306.904739,28.849 307.78798,28.631 308.062055,29.078 C308.062055,29.079 308.047051,29.085 308.04405,29.081 C307.78498,28.744 307.329855,28.922 306.98176,28.947 C306.618661,28.973 306.255562,28.991 305.892463,28.984 C305.622389,28.979 305.352316,28.967 305.082242,28.958 C305.247287,28.979 305.409331,29.008 305.572376,29.043 C306.014496,29.139 306.428609,29.264 306.828719,29.477 C307.450888,29.806 308.090063,30.231 308.829264,30.11 C308.833266,30.108 308.852271,30.111 308.843268,30.113 C307.78798,30.344 306.79771,29.612 305.790435,29.431 C304.858181,29.263 303.912923,29.269 302.968665,29.252 C303.138712,29.268 303.308758,29.288 303.477804,29.316 C304.145987,29.43 304.778159,29.594 305.420334,29.807 C306.843723,30.282 308.278114,30.728 309.718507,31.147 C309.724509,31.148 309.701502,31.154 309.696501,31.152 C308.236103,30.78 306.754698,30.546 305.305303,30.12 C304.044959,29.751 302.747605,29.624 301.495263,29.213 C301.443249,29.195 301.487261,29.167 301.527272,29.152" id="Shape" fill="#FFFFFF"></path>
                        <path d="M307.928019,31.957 C307.93402,31.957 307.915015,31.969 307.910014,31.969 C306.543641,32.053 305.188271,31.446 303.884915,31.113 C303.0947,30.909 302.256471,30.772 301.444249,30.686 C300.792072,30.619 300.109885,30.646 299.544731,30.266 C299.452706,30.204 299.639757,30.114 299.689771,30.119 C301.22619,30.295 302.817624,30.405 304.293027,30.914 C305.496355,31.328 306.611659,32.007 307.928019,31.957" id="Shape" fill="#FFFFFF"></path>
                        <path d="M299.289662,30.242 C299.289662,30.242 299.291662,30.241 299.291662,30.242 C299.800801,30.824 300.518997,31.087 301.277204,31.139 C301.881369,31.18 302.453525,31.145 303.038684,31.341 C303.152716,31.378 303.010677,31.464 302.956662,31.468 C301.746332,31.541 300.073876,31.267 299.289662,30.242" id="Shape" fill="#FFFFFF"></path>
                        <path d="M303.179723,33.166 C302.274476,32.803 300.717051,32.439 300.363955,31.391 C300.20091,31.291 300.055871,31.159 299.949842,30.975 C299.947841,30.972 299.961845,30.965 299.963846,30.968 C300.430973,31.486 301.123162,31.375 301.737329,31.531 C302.299483,31.674 302.65658,32.066 303.052688,32.465 C303.139712,32.551 302.951661,32.645 302.879641,32.613 C302.511541,32.455 302.311486,32.146 301.973394,31.959 C301.673312,31.791 301.362227,31.771 301.041139,31.672 C300.811077,31.6 300.588016,31.526 300.391962,31.408 C300.931109,32.426 302.430519,32.48 303.319761,33.076 C303.401784,33.13 303.226736,33.185 303.179723,33.166" id="Shape" fill="#FFFFFF"></path>
                        <path d="M298.874548,29.285 C299.652761,28.894 299.659763,27.586 300.008858,26.838 C301.055143,24.597 302.449524,22.385 303.763882,20.307" id="Shape" fill="#000000"></path>
                        <path d="M305.083242,18.174 C305.083242,18.175 305.078241,18.174 305.078241,18.174 C305.300302,17.896 305.016224,18.411 304.970212,18.507 C304.846178,18.761 304.713141,19.012 304.566101,19.253 C304.266019,19.746 304.006949,20.269 303.689862,20.75 C303.282751,21.371 302.829627,21.952 302.573558,22.654 C302.367501,23.216 302.200456,23.792 301.950388,24.338 C301.452252,25.428 300.524999,26.24 299.94184,27.282 C299.515723,28.042 299.384688,29.044 298.645486,29.557 C298.546459,29.625 298.130345,29.409 298.205366,29.277 C298.470438,28.802 298.786524,28.618 299.040594,28.133 C299.303665,27.637 299.559735,27.138 299.847814,26.656 C300.131891,26.18 300.506994,25.764 300.853088,25.336 C301.224189,24.875 301.511268,24.401 301.762336,23.867 C302.259472,22.815 302.783615,21.781 303.441794,20.822 C304.060963,19.921 304.721144,19.046 305.159263,18.038 C305.160263,18.035 305.171266,18.037 305.171266,18.04 C305.179269,18.078 305.106249,18.147 305.083242,18.174" id="Shape" fill="#000000"></path>
                        <path d="M311.773068,23.601 C311.779069,23.599 311.815079,23.6 311.799075,23.607 C309.498447,24.572 307.100793,25.325 304.85418,26.412 C303.75388,26.944 302.712596,27.587 301.613296,28.124 C301.016133,28.413 300.416969,28.699 299.837811,29.02 C299.406694,29.26 299.004584,29.565 298.541457,29.735 C298.416423,29.78 298.279386,29.651 298.381414,29.541 C298.800528,29.085 299.398691,28.802 299.940839,28.518 C300.450978,28.254 300.967119,28.002 301.48426,27.751 C302.58256,27.216 303.621844,26.568 304.730146,26.057 C306.998765,25.012 309.459436,24.525 311.773068,23.601" id="Shape" fill="#000000"></path>
                        <path d="M296.31485,20.432 C296.31385,20.431 296.364864,20.677 296.366864,20.679 C297.2311,22.329 297.820261,23.6 298.283387,25.001 C298.537456,25.771 298.707503,26.622 298.754516,27.432 C298.778522,27.86 298.911558,28.898 298.459435,29.147 C298.398418,29.18 298.255379,29.476 298.246377,29.391 C298.212368,29.087 298.365409,28.468 298.383414,28.16 C298.406421,27.743 298.387415,27.328 298.338402,26.913 C298.254379,26.207 298.11234,25.509 297.959299,24.814 C297.658216,23.459 297.427153,22.419 296.366864,20.545 L296.31485,20.432 Z" id="Shape" fill="#000000"></path>
                        <path d="M307.815988,25.459 C309.614479,24.425 312.701321,22.815 314.316762,21.761 C314.317762,21.761 314.321763,21.759 314.320763,21.759 C312.970394,23.016 309.873549,24.493 308.375141,25.436 C308.360136,25.446 308.340131,25.454 308.318125,25.46 C309.391418,25.603 310.553735,24.989 311.565011,25.037 C311.835085,25.05 311.841086,25.133 312.116161,25.282 C312.133166,25.29 312.11016,25.288 312.105158,25.286 C311.512997,25.021 310.563738,25.553 310.007586,25.621 C309.430428,25.695 308.859273,25.675 308.246105,25.513 C308.201093,25.501 307.728964,25.502 307.772976,25.499 C307.780978,25.488 307.789981,25.472 307.815988,25.459" id="Shape" fill="#FFFFFF"></path>
                    </g>
                </g>
            </g>
        </g>
    </g>
</svg>